<svg xmlns="http://www.w3.org/2000/svg" xmlns:xlink="http://www.w3.org/1999/xlink" width="1754" zoomAndPan="magnify" viewBox="0 0 1315.5 1535.999932" height="2048" preserveAspectRatio="xMidYMid meet" version="1.0"><defs><clipPath id="29b68d72db"><path d="M 0 0.292969 L 1315 0.292969 L 1315 1535.707031 L 0 1535.707031 Z M 0 0.292969 " clip-rule="nonzero"/></clipPath><clipPath id="06f72d3b13"><path d="M 0 0.292969 L 1314.996094 0.292969 L 1314.996094 1535.707031 L 0 1535.707031 Z M 0 0.292969 " clip-rule="nonzero"/></clipPath></defs><g clip-path="url(#29b68d72db)" opacity="0"><path fill="#ffffff" d="M 0 0.292969 L 1315 0.292969 L 1315 1535.707031 L 0 1535.707031 Z M 0 0.292969 " fill-opacity="1" fill-rule="nonzero"/><path fill="#ffffff" d="M 0 0.292969 L 1315 0.292969 L 1315 1535.707031 L 0 1535.707031 Z M 0 0.292969 " fill-opacity="1" fill-rule="nonzero"/></g><g clip-path="url(#06f72d3b13)"><path fill="#FE0174" d="M 695.664062 16.464844 C 698.699219 18.347656 701.769531 20.136719 704.890625 21.859375 C 708.453125 23.828125 711.960938 25.871094 715.441406 27.980469 C 720 30.730469 724.601562 33.414062 729.199219 36.097656 C 735.472656 39.765625 741.722656 43.464844 747.945312 47.21875 C 754.371094 51.09375 760.851562 54.871094 767.355469 58.609375 C 772.542969 61.589844 777.703125 64.609375 782.847656 67.660156 C 787.527344 70.433594 792.214844 73.1875 796.910156 75.933594 C 804.449219 80.347656 811.976562 84.785156 819.488281 89.246094 C 825.046875 92.546875 830.621094 95.816406 836.199219 99.078125 C 843.027344 103.070312 849.824219 107.113281 856.601562 111.195312 C 862.035156 114.464844 867.503906 117.671875 872.988281 120.859375 C 877.375 123.410156 881.75 125.980469 886.117188 128.566406 C 891.910156 131.996094 897.710938 135.402344 903.515625 138.804688 C 909.253906 142.160156 914.984375 145.527344 920.703125 148.914062 C 928.835938 153.726562 936.992188 158.5 945.144531 163.277344 C 948.839844 165.441406 952.53125 167.605469 956.222656 169.769531 C 957.441406 170.480469 958.65625 171.195312 959.875 171.910156 C 963.570312 174.074219 967.265625 176.242188 970.964844 178.410156 C 980.957031 184.273438 990.957031 190.125 1000.96875 195.957031 C 1004.996094 198.308594 1009.023438 200.65625 1013.054688 203.007812 C 1016.382812 204.949219 1019.707031 206.890625 1023.035156 208.828125 C 1030.800781 213.355469 1038.558594 217.894531 1046.3125 222.441406 C 1053.882812 226.882812 1061.460938 231.308594 1069.042969 235.726562 C 1072.394531 237.679688 1075.746094 239.636719 1079.097656 241.589844 C 1080.445312 242.378906 1081.796875 243.164062 1083.144531 243.949219 C 1085.839844 245.523438 1088.535156 247.09375 1091.230469 248.667969 C 1091.898438 249.058594 1092.566406 249.445312 1093.253906 249.847656 C 1094.601562 250.636719 1095.953125 251.421875 1097.304688 252.210938 C 1100.632812 254.152344 1103.960938 256.09375 1107.289062 258.03125 C 1115.054688 262.558594 1122.8125 267.097656 1130.566406 271.644531 C 1138.136719 276.085938 1145.714844 280.511719 1153.296875 284.929688 C 1157.324219 287.277344 1161.351562 289.628906 1165.382812 291.980469 C 1168.710938 293.917969 1172.035156 295.859375 1175.367188 297.800781 C 1183.128906 302.328125 1190.886719 306.863281 1198.640625 311.410156 C 1206.210938 315.851562 1213.789062 320.277344 1221.371094 324.695312 C 1225.402344 327.042969 1229.429688 329.394531 1233.457031 331.746094 C 1236.785156 333.6875 1240.113281 335.628906 1243.441406 337.566406 C 1246.796875 339.523438 1250.148438 341.480469 1253.5 343.4375 C 1255.027344 344.328125 1256.550781 345.214844 1258.078125 346.105469 C 1289.773438 364.554688 1289.773438 364.554688 1296.132812 370.328125 C 1296.589844 370.722656 1297.042969 371.117188 1297.511719 371.519531 C 1307.699219 380.898438 1312.578125 394.546875 1313.65625 408.074219 C 1313.746094 410.800781 1313.746094 413.523438 1313.734375 416.25 C 1313.734375 417.050781 1313.734375 417.851562 1313.734375 418.675781 C 1313.734375 420.875 1313.730469 423.070312 1313.722656 425.269531 C 1313.722656 426.671875 1313.71875 428.078125 1313.71875 429.484375 C 1313.695312 447.179688 1313.574219 464.871094 1313.441406 482.5625 C 1313.039062 536.335938 1312.890625 590.105469 1312.863281 643.878906 C 1312.859375 650.503906 1312.855469 657.128906 1312.84375 663.757812 C 1312.753906 715.3125 1312.753906 715.3125 1313.6875 766.855469 C 1314.316406 789.058594 1314.519531 811.257812 1314.609375 833.472656 C 1314.613281 834.359375 1314.617188 835.246094 1314.621094 836.160156 C 1314.667969 847.308594 1314.699219 858.457031 1314.730469 869.609375 C 1314.746094 876.464844 1314.769531 883.320312 1314.789062 890.179688 C 1314.859375 912.441406 1314.917969 934.703125 1314.964844 956.964844 C 1314.96875 957.464844 1314.96875 957.960938 1314.96875 958.476562 C 1314.96875 958.972656 1314.972656 959.472656 1314.972656 959.984375 C 1314.972656 960.484375 1314.976562 960.980469 1314.976562 961.492188 C 1314.976562 962.496094 1314.980469 963.496094 1314.984375 964.5 C 1315 971.855469 1315.015625 979.210938 1315.035156 986.570312 C 1315.085938 1006.519531 1315.132812 1026.464844 1315.15625 1046.414062 C 1315.15625 1048.101562 1315.160156 1049.789062 1315.160156 1051.476562 C 1315.160156 1052.304688 1315.164062 1053.128906 1315.164062 1053.984375 C 1315.171875 1059.773438 1315.183594 1065.5625 1315.199219 1071.355469 C 1315.214844 1078.347656 1315.222656 1085.34375 1315.222656 1092.335938 C 1315.222656 1095.871094 1315.226562 1099.40625 1315.238281 1102.941406 C 1315.25 1106.164062 1315.253906 1109.386719 1315.246094 1112.609375 C 1315.246094 1113.765625 1315.25 1114.921875 1315.257812 1116.082031 C 1315.347656 1132.75 1311.03125 1146.285156 1299.726562 1158.851562 C 1294.402344 1164.113281 1287.972656 1168.035156 1281.511719 1171.71875 C 1279.363281 1172.941406 1277.226562 1174.183594 1275.089844 1175.421875 C 1274.652344 1175.675781 1274.214844 1175.929688 1273.765625 1176.191406 C 1269.273438 1178.796875 1264.839844 1181.496094 1260.410156 1184.207031 C 1253.949219 1188.15625 1247.449219 1192.023438 1240.90625 1195.832031 C 1234.820312 1199.378906 1228.789062 1202.992188 1222.816406 1206.730469 C 1217.519531 1210.03125 1212.15625 1213.214844 1206.785156 1216.390625 C 1199.917969 1220.449219 1193.078125 1224.539062 1186.269531 1228.691406 C 1179.101562 1233.0625 1171.894531 1237.363281 1164.671875 1241.640625 C 1157.59375 1245.828125 1150.554688 1250.074219 1143.53125 1254.355469 C 1137.484375 1258.039062 1131.402344 1261.65625 1125.3125 1265.257812 C 1119.421875 1268.742188 1113.546875 1272.246094 1107.746094 1275.875 C 1101.941406 1279.5 1096.070312 1283.003906 1090.179688 1286.488281 C 1083.21875 1290.605469 1076.273438 1294.75 1069.367188 1298.957031 C 1068.980469 1299.195312 1068.59375 1299.429688 1068.195312 1299.671875 C 1067.808594 1299.910156 1067.421875 1300.144531 1067.027344 1300.386719 C 1061.273438 1303.886719 1055.503906 1307.359375 1049.722656 1310.820312 C 1044.941406 1313.683594 1040.171875 1316.574219 1035.410156 1319.476562 C 1028.136719 1323.902344 1020.835938 1328.28125 1013.507812 1332.617188 C 1005.4375 1337.394531 997.40625 1342.230469 989.40625 1347.125 C 985.730469 1349.371094 982.054688 1351.613281 978.375 1353.847656 C 977.789062 1354.207031 977.789062 1354.207031 977.191406 1354.570312 C 970.261719 1358.78125 963.289062 1362.921875 956.3125 1367.050781 C 950.246094 1370.640625 944.21875 1374.277344 938.230469 1377.988281 C 931.785156 1381.980469 925.292969 1385.882812 918.765625 1389.742188 C 911.921875 1393.789062 905.089844 1397.863281 898.292969 1402 C 897.90625 1402.234375 897.523438 1402.46875 897.125 1402.710938 C 894.425781 1404.351562 891.726562 1406 889.027344 1407.644531 C 885.9375 1409.527344 882.847656 1411.410156 879.757812 1413.289062 C 879.375 1413.523438 878.992188 1413.757812 878.59375 1413.996094 C 871.652344 1418.21875 864.667969 1422.363281 857.675781 1426.5 C 851.699219 1430.039062 845.765625 1433.625 839.878906 1437.308594 C 834.542969 1440.628906 829.140625 1443.832031 823.730469 1447.03125 C 815.566406 1451.863281 807.445312 1456.746094 799.351562 1461.695312 C 795.574219 1464.003906 791.792969 1466.304688 788.007812 1468.601562 C 787.410156 1468.964844 787.410156 1468.964844 786.796875 1469.335938 C 780.546875 1473.132812 774.277344 1476.902344 768.003906 1480.660156 C 762.246094 1484.109375 756.507812 1487.589844 750.773438 1491.078125 C 745.863281 1494.0625 740.953125 1497.035156 736.023438 1499.984375 C 730.703125 1503.167969 725.398438 1506.375 720.097656 1509.589844 C 719.703125 1509.832031 719.304688 1510.070312 718.894531 1510.320312 C 714.453125 1513.015625 710.015625 1515.726562 705.59375 1518.453125 C 705.203125 1518.691406 704.8125 1518.933594 704.410156 1519.183594 C 702.5625 1520.320312 700.714844 1521.460938 698.867188 1522.605469 C 683.296875 1532.226562 669.121094 1538.710938 650.394531 1534.402344 C 642.429688 1532.371094 635.335938 1528.566406 628.347656 1524.332031 C 627.5 1523.828125 626.652344 1523.320312 625.804688 1522.816406 C 624.066406 1521.78125 622.332031 1520.746094 620.601562 1519.703125 C 616.734375 1517.378906 612.851562 1515.089844 608.96875 1512.792969 C 607.464844 1511.898438 605.960938 1511.007812 604.457031 1510.113281 C 597.25 1505.84375 590.019531 1501.617188 582.789062 1497.382812 C 579.117188 1495.234375 575.445312 1493.082031 571.773438 1490.925781 C 569.734375 1489.734375 567.699219 1488.539062 565.664062 1487.347656 C 564.851562 1486.871094 564.035156 1486.390625 563.222656 1485.914062 C 562.617188 1485.558594 562.617188 1485.558594 562 1485.199219 C 538.789062 1471.59375 538.789062 1471.59375 537.566406 1470.875 C 536.753906 1470.398438 535.9375 1469.921875 535.125 1469.441406 C 533.089844 1468.25 531.054688 1467.058594 529.019531 1465.863281 C 525.339844 1463.707031 521.664062 1461.554688 517.984375 1459.398438 C 509.585938 1454.484375 501.195312 1449.554688 492.828125 1444.589844 C 485.886719 1440.46875 478.921875 1436.386719 471.945312 1432.324219 C 467.359375 1429.652344 462.78125 1426.96875 458.199219 1424.285156 C 457.792969 1424.042969 457.386719 1423.804688 456.964844 1423.558594 C 453.628906 1421.605469 450.296875 1419.648438 446.960938 1417.691406 C 435.480469 1410.957031 423.992188 1404.234375 412.492188 1397.535156 C 403.417969 1392.246094 394.347656 1386.945312 385.289062 1381.632812 C 379.757812 1378.386719 374.222656 1375.148438 368.683594 1371.921875 C 360.71875 1367.28125 352.769531 1362.621094 344.820312 1357.957031 C 341.875 1356.230469 338.929688 1354.503906 335.980469 1352.777344 C 328.085938 1348.152344 320.191406 1343.519531 312.316406 1338.859375 C 306.839844 1335.617188 301.351562 1332.402344 295.859375 1329.1875 C 289.859375 1325.675781 283.875 1322.140625 277.902344 1318.589844 C 271.292969 1314.664062 264.652344 1310.804688 257.988281 1306.976562 C 251.964844 1303.511719 245.988281 1299.96875 240.015625 1296.417969 C 234.847656 1293.347656 229.65625 1290.324219 224.441406 1287.332031 C 217.691406 1283.453125 210.984375 1279.503906 204.292969 1275.523438 C 199.125 1272.453125 193.933594 1269.429688 188.71875 1266.4375 C 182.738281 1263 176.785156 1259.515625 170.859375 1255.988281 C 164.859375 1252.421875 158.835938 1248.894531 152.785156 1245.417969 C 146.886719 1242.023438 141.011719 1238.601562 135.15625 1235.128906 C 130.019531 1232.085938 124.871094 1229.058594 119.714844 1226.039062 C 119.300781 1225.792969 118.882812 1225.550781 118.453125 1225.296875 C 112.898438 1222.042969 107.335938 1218.792969 101.769531 1215.546875 C 76.433594 1200.773438 76.433594 1200.773438 65.5 1194.191406 C 60.058594 1190.914062 54.597656 1187.664062 49.113281 1184.460938 C 48.125 1183.882812 48.125 1183.882812 47.113281 1183.292969 C 43.722656 1181.316406 40.316406 1179.378906 36.886719 1177.476562 C 36.195312 1177.09375 35.503906 1176.710938 34.792969 1176.3125 C 33.496094 1175.59375 32.191406 1174.878906 30.886719 1174.171875 C 18.292969 1167.195312 9 1157.117188 4.90625 1143.132812 C 3.578125 1137.5625 3.261719 1131.945312 3.292969 1126.242188 C 3.292969 1125.625 3.292969 1125.003906 3.292969 1124.367188 C 3.296875 1122.292969 3.300781 1120.21875 3.308594 1118.140625 C 3.3125 1116.632812 3.3125 1115.121094 3.3125 1113.613281 C 3.316406 1110.320312 3.324219 1107.027344 3.332031 1103.734375 C 3.347656 1095 3.351562 1086.261719 3.359375 1077.523438 C 3.359375 1076.03125 3.359375 1074.539062 3.359375 1073.042969 C 3.378906 1047.613281 3.3125 1022.183594 3.242188 996.75 C 3.238281 996.167969 3.238281 995.585938 3.234375 994.984375 C 3.203125 983.667969 3.171875 972.355469 3.136719 961.039062 C 3.132812 960.441406 3.132812 959.847656 3.128906 959.234375 C 3.117188 955.621094 3.117188 955.621094 3.109375 952.007812 C 3.078125 942.234375 3.050781 932.460938 3.023438 922.683594 C 2.996094 912.417969 2.964844 902.148438 2.933594 891.882812 C 2.917969 886.207031 2.902344 880.535156 2.886719 874.859375 C 2.832031 853.324219 2.714844 831.796875 2.304688 810.261719 C 1.933594 790.53125 1.878906 770.800781 1.835938 751.070312 C 1.824219 745.597656 1.808594 740.128906 1.792969 734.65625 C 1.765625 724.773438 1.738281 714.886719 1.714844 705.003906 C 1.710938 704.417969 1.710938 703.832031 1.710938 703.230469 C 1.703125 700.871094 1.699219 698.507812 1.691406 696.144531 C 1.640625 676.078125 1.589844 656.007812 1.53125 635.9375 C 1.53125 635.371094 1.527344 634.804688 1.527344 634.21875 C 1.425781 599.070312 1.277344 563.917969 1.058594 528.769531 C 1.035156 525.433594 1.015625 522.101562 0.996094 518.765625 C 0.847656 492.984375 0.585938 467.210938 0.109375 441.433594 C -0.0117188 434.832031 -0.109375 428.230469 -0.195312 421.628906 C -0.210938 420.550781 -0.226562 419.476562 -0.242188 418.402344 C -0.25 417.882812 -0.257812 417.367188 -0.265625 416.832031 C -0.269531 416.375 -0.277344 415.917969 -0.285156 415.449219 C -0.332031 407.425781 1.425781 399.371094 5.261719 392.277344 C 5.492188 391.832031 5.722656 391.386719 5.960938 390.925781 C 7.875 387.34375 10.128906 384.175781 12.800781 381.113281 C 13.292969 380.492188 13.785156 379.871094 14.289062 379.230469 C 16.136719 377.015625 18.1875 375.253906 20.460938 373.492188 C 20.871094 373.175781 21.28125 372.855469 21.703125 372.527344 C 26.171875 369.121094 30.9375 366.300781 35.800781 363.503906 C 37.230469 362.671875 38.65625 361.835938 40.082031 361.003906 C 41.042969 360.4375 42.007812 359.875 42.972656 359.3125 C 47.207031 356.839844 51.402344 354.300781 55.585938 351.738281 C 62.738281 347.363281 69.941406 343.082031 77.183594 338.855469 C 83.621094 335.097656 90.027344 331.289062 96.417969 327.441406 C 100.789062 324.8125 105.167969 322.199219 109.5625 319.609375 C 115.648438 316.019531 121.730469 312.425781 127.804688 308.824219 C 128.265625 308.550781 128.726562 308.277344 129.199219 307.996094 C 136.015625 303.953125 142.800781 299.859375 149.566406 295.730469 C 155.90625 291.863281 162.300781 288.089844 168.71875 284.347656 C 175.097656 280.625 181.425781 276.832031 187.730469 272.984375 C 194.167969 269.054688 200.640625 265.1875 207.128906 261.347656 C 215.199219 256.570312 223.230469 251.734375 231.230469 246.839844 C 234.90625 244.59375 238.582031 242.355469 242.261719 240.117188 C 242.648438 239.878906 243.039062 239.644531 243.4375 239.398438 C 250.523438 235.09375 257.648438 230.863281 264.78125 226.640625 C 271.957031 222.398438 271.957031 222.398438 279.039062 218 C 284.65625 214.429688 290.398438 211.070312 296.128906 207.683594 C 302.589844 203.859375 309.027344 200.003906 315.433594 196.09375 C 322.601562 191.722656 329.808594 187.421875 337.03125 183.148438 C 343.335938 179.414062 349.621094 175.644531 355.875 171.828125 C 363.042969 167.460938 370.25 163.160156 377.472656 158.882812 C 383.777344 155.148438 390.058594 151.378906 396.316406 147.566406 C 403.484375 143.195312 410.691406 138.894531 417.914062 134.617188 C 424.21875 130.886719 430.5 127.117188 436.757812 123.300781 C 443.925781 118.929688 451.132812 114.628906 458.355469 110.355469 C 465.429688 106.164062 472.46875 101.921875 479.488281 97.640625 C 485.605469 93.914062 491.761719 90.253906 497.925781 86.609375 C 503.570312 83.269531 509.207031 79.921875 514.742188 76.398438 C 519.617188 73.320312 524.601562 70.417969 529.5625 67.484375 C 535.621094 63.902344 541.667969 60.304688 547.636719 56.574219 C 553.53125 52.882812 559.507812 49.328125 565.496094 45.789062 C 572.097656 41.882812 578.671875 37.949219 585.179688 33.886719 C 590.777344 30.398438 596.421875 26.976562 602.070312 23.5625 C 606.070312 21.140625 610.0625 18.703125 614.027344 16.226562 C 635.464844 2.847656 635.464844 2.847656 645.03125 0.964844 C 645.796875 0.8125 646.558594 0.660156 647.347656 0.503906 C 666.203125 -1.152344 680.222656 6.855469 695.664062 16.464844 Z M 624.136719 80.5 C 622.382812 81.3125 622.382812 81.3125 620.390625 82.539062 C 620.011719 82.761719 619.632812 82.984375 619.238281 83.214844 C 617.976562 83.960938 616.71875 84.714844 615.457031 85.472656 C 614.574219 85.996094 613.6875 86.523438 612.800781 87.046875 C 604.121094 92.199219 595.496094 97.445312 586.882812 102.703125 C 583.40625 104.828125 579.929688 106.945312 576.449219 109.0625 C 576.066406 109.296875 575.683594 109.527344 575.289062 109.769531 C 568.34375 113.988281 561.359375 118.136719 554.367188 122.273438 C 548.945312 125.484375 543.542969 128.722656 538.199219 132.0625 C 532.394531 135.691406 526.523438 139.195312 520.632812 142.679688 C 513.714844 146.769531 506.8125 150.886719 499.949219 155.0625 C 499.5625 155.296875 499.179688 155.53125 498.78125 155.773438 C 496.082031 157.417969 493.378906 159.0625 490.679688 160.707031 C 487.59375 162.589844 484.503906 164.472656 481.414062 166.351562 C 481.03125 166.585938 480.648438 166.820312 480.253906 167.058594 C 473.234375 171.328125 466.171875 175.519531 459.101562 179.703125 C 453.929688 182.765625 448.773438 185.847656 443.695312 189.074219 C 438.847656 192.132812 433.898438 195.027344 428.964844 197.949219 C 420.726562 202.824219 412.523438 207.753906 404.355469 212.75 C 400.683594 214.996094 397.003906 217.238281 393.328125 219.472656 C 392.742188 219.828125 392.742188 219.828125 392.148438 220.191406 C 385.066406 224.496094 377.941406 228.726562 370.808594 232.949219 C 365.632812 236.011719 360.476562 239.09375 355.402344 242.320312 C 350.550781 245.382812 345.601562 248.277344 340.667969 251.195312 C 332.429688 256.070312 324.226562 261.003906 316.058594 265.996094 C 312.386719 268.242188 308.710938 270.484375 305.03125 272.722656 C 304.640625 272.957031 304.25 273.195312 303.847656 273.441406 C 296.84375 277.699219 289.796875 281.886719 282.738281 286.058594 C 276.761719 289.597656 270.824219 293.1875 264.9375 296.871094 C 259.644531 300.164062 254.28125 303.335938 248.917969 306.507812 C 242.292969 310.421875 235.699219 314.375 229.160156 318.429688 C 222.714844 322.421875 216.222656 326.324219 209.699219 330.183594 C 202.851562 334.234375 196.019531 338.304688 189.226562 342.441406 C 188.839844 342.675781 188.453125 342.910156 188.058594 343.152344 C 185.355469 344.792969 182.65625 346.441406 179.957031 348.085938 C 176.867188 349.96875 173.78125 351.851562 170.691406 353.730469 C 170.308594 353.964844 169.925781 354.195312 169.53125 354.4375 C 162.511719 358.703125 155.449219 362.894531 148.378906 367.078125 C 143.207031 370.140625 138.054688 373.21875 132.984375 376.445312 C 128.511719 379.269531 123.953125 381.941406 119.398438 384.632812 C 115.714844 386.816406 112.03125 389.003906 108.347656 391.191406 C 107.277344 391.828125 106.203125 392.464844 105.128906 393.101562 C 103.554688 394.039062 101.988281 394.988281 100.421875 395.941406 C 99.992188 396.195312 99.5625 396.453125 99.117188 396.714844 C 97.871094 397.457031 97.871094 397.457031 96.378906 398.636719 C 96.160156 400.703125 96.160156 400.703125 97.550781 402.046875 C 102.855469 406.949219 108.683594 410.648438 114.835938 414.402344 C 117.207031 415.863281 119.550781 417.363281 121.894531 418.867188 C 135.863281 427.824219 150.0625 436.402344 164.25 445 C 168.984375 447.867188 173.710938 450.738281 178.4375 453.609375 C 179.617188 454.328125 180.796875 455.042969 181.972656 455.757812 C 182.363281 455.992188 182.753906 456.230469 183.152344 456.472656 C 185.921875 458.15625 188.691406 459.835938 191.464844 461.511719 C 218.179688 477.707031 218.179688 477.707031 230.929688 485.839844 C 231.535156 486.226562 232.144531 486.613281 232.769531 487.011719 C 235.011719 488.441406 237.25 489.871094 239.488281 491.3125 C 251.636719 499.125 263.410156 504.878906 278.320312 501.761719 C 288.335938 498.835938 296.9375 492.734375 305.589844 487.117188 C 317.203125 479.578125 329.105469 472.511719 341.019531 465.464844 C 346.992188 461.929688 352.941406 458.359375 358.867188 454.75 C 359.449219 454.394531 359.449219 454.394531 360.042969 454.035156 C 360.425781 453.800781 360.8125 453.5625 361.210938 453.324219 C 366.960938 449.820312 372.734375 446.347656 378.511719 442.890625 C 383.296875 440.023438 388.0625 437.132812 392.824219 434.234375 C 400.480469 429.570312 408.171875 424.96875 415.886719 420.40625 C 422.238281 416.644531 428.5625 412.84375 434.863281 409 C 441.589844 404.894531 448.363281 400.878906 455.171875 396.910156 C 461.277344 393.351562 467.335938 389.722656 473.367188 386.042969 C 481.0625 381.34375 488.824219 376.769531 496.625 372.25 C 500.210938 370.164062 503.789062 368.066406 507.367188 365.96875 C 508.617188 365.234375 509.871094 364.503906 511.121094 363.773438 C 514.949219 361.535156 518.761719 359.28125 522.542969 356.964844 C 531.917969 351.238281 539.933594 346.734375 551.34375 348.085938 C 559.746094 350.308594 565.578125 355.753906 569.972656 363.035156 C 572.253906 367.769531 573.273438 372.066406 573.207031 377.320312 C 573.199219 378.160156 573.199219 378.160156 573.191406 379.015625 C 572.976562 387.015625 569.820312 393.160156 564.570312 399.101562 C 560.433594 402.746094 555.910156 405.746094 551.214844 408.621094 C 550.3125 409.179688 550.3125 409.179688 549.390625 409.746094 C 537.296875 417.148438 524.988281 424.199219 512.699219 431.261719 C 507.46875 434.277344 502.269531 437.339844 497.082031 440.425781 C 490.386719 444.410156 483.660156 448.332031 476.90625 452.21875 C 472.023438 455.027344 467.152344 457.847656 462.289062 460.6875 C 461.292969 461.269531 461.292969 461.269531 460.277344 461.863281 C 458.277344 463.03125 456.28125 464.199219 454.28125 465.363281 C 445.246094 470.648438 436.199219 475.910156 427.128906 481.132812 C 422.242188 483.949219 417.363281 486.785156 412.492188 489.628906 C 406.152344 493.335938 399.792969 497.011719 393.425781 500.679688 C 388.539062 503.496094 383.664062 506.332031 378.792969 509.175781 C 367.5 515.773438 356.167969 522.304688 344.816406 528.796875 C 344.019531 529.25 343.222656 529.707031 342.429688 530.164062 C 338.257812 532.546875 334.085938 534.921875 329.882812 537.25 C 329.1875 537.640625 328.488281 538.027344 327.769531 538.429688 C 326.480469 539.148438 325.1875 539.859375 323.890625 540.570312 C 319.867188 542.808594 316.3125 545.375 312.738281 548.269531 C 311.953125 548.859375 311.167969 549.449219 310.378906 550.039062 C 303.457031 556.125 299.476562 564.929688 297.910156 573.882812 C 297.851562 574.914062 297.824219 575.945312 297.824219 576.976562 C 297.820312 577.578125 297.820312 578.175781 297.816406 578.792969 C 297.816406 579.445312 297.820312 580.097656 297.820312 580.769531 C 297.820312 581.472656 297.820312 582.175781 297.820312 582.902344 C 297.820312 584.414062 297.820312 585.925781 297.824219 587.4375 C 297.828125 589.601562 297.824219 591.765625 297.820312 593.933594 C 297.816406 603.863281 297.980469 613.789062 298.183594 623.71875 C 298.617188 645.019531 298.8125 666.316406 298.953125 687.617188 C 298.964844 689.152344 298.972656 690.683594 298.984375 692.21875 C 299.222656 728.140625 299.363281 764.0625 299.410156 799.988281 C 299.414062 801.011719 299.414062 801.011719 299.414062 802.058594 C 299.414062 803.078125 299.414062 803.078125 299.417969 804.121094 C 299.425781 808.914062 299.4375 813.703125 299.449219 818.496094 C 299.46875 824.363281 299.476562 830.230469 299.476562 836.097656 C 299.476562 839.109375 299.480469 842.125 299.492188 845.136719 C 299.503906 847.917969 299.503906 850.699219 299.5 853.480469 C 299.5 854.484375 299.503906 855.488281 299.507812 856.492188 C 299.574219 866.90625 298.445312 876.703125 291.203125 884.714844 C 284.414062 891.003906 276.65625 892.480469 267.632812 892.230469 C 261.179688 891.863281 255.433594 889.734375 250.730469 885.277344 C 250.363281 884.941406 250 884.601562 249.625 884.253906 C 243.480469 877.878906 242.5625 869.425781 241.96875 861.015625 C 241.914062 860.261719 241.859375 859.503906 241.804688 858.726562 C 241.363281 852.179688 241.15625 845.648438 241.089844 839.082031 C 241.078125 837.976562 241.0625 836.867188 241.050781 835.761719 C 241.015625 832.6875 240.980469 829.617188 240.953125 826.542969 C 240.933594 824.539062 240.910156 822.535156 240.890625 820.53125 C 240.605469 792.800781 240.523438 765.070312 240.457031 737.335938 C 240.453125 735.628906 240.449219 733.921875 240.445312 732.210938 C 240.386719 709.289062 240.335938 686.363281 240.292969 663.441406 C 240.277344 653.460938 240.253906 643.480469 240.226562 633.5 C 240.210938 627.410156 240.195312 621.320312 240.191406 615.230469 C 240.183594 611.09375 240.175781 606.953125 240.160156 602.816406 C 240.152344 600.441406 240.148438 598.066406 240.148438 595.691406 C 240.289062 572.203125 240.289062 572.203125 229.0625 552.0625 C 224.933594 548.113281 220.234375 545.269531 215.304688 542.46875 C 213.414062 541.390625 211.535156 540.300781 209.65625 539.207031 C 201.960938 534.742188 194.234375 530.335938 186.480469 525.964844 C 179.40625 521.976562 172.375 517.90625 165.339844 513.839844 C 163.105469 512.542969 160.863281 511.253906 158.621094 509.964844 C 149.894531 504.945312 141.203125 499.875 132.542969 494.734375 C 129.574219 492.976562 126.605469 491.21875 123.632812 489.460938 C 123.035156 489.105469 122.433594 488.75 121.8125 488.382812 C 118.292969 486.304688 114.769531 484.230469 111.238281 482.167969 C 109.585938 481.199219 107.933594 480.234375 106.277344 479.265625 C 105.863281 479.023438 105.449219 478.78125 105.023438 478.53125 C 99.242188 475.148438 93.480469 471.730469 87.742188 468.273438 C 81.992188 464.808594 76.222656 461.382812 70.429688 457.992188 C 69.726562 457.582031 69.027344 457.171875 68.304688 456.746094 C 67.664062 456.375 67.023438 456 66.363281 455.617188 C 65.511719 455.117188 65.511719 455.117188 64.644531 454.613281 C 63.5 453.851562 63.5 453.851562 62.679688 453.90625 C 62.679688 661.207031 62.679688 868.507812 62.679688 1082.09375 C 73.125 1077.453125 73.125 1077.453125 83.410156 1072.5 C 84.164062 1072.125 84.917969 1071.75 85.695312 1071.363281 C 87.273438 1070.578125 88.847656 1069.789062 90.425781 1069 C 92.78125 1067.820312 95.140625 1066.648438 97.5 1065.476562 C 107.417969 1060.53125 117.117188 1055.289062 126.710938 1049.738281 C 127.554688 1049.257812 128.398438 1048.773438 129.246094 1048.289062 C 131.238281 1047.148438 133.230469 1046.003906 135.21875 1044.851562 C 135.9375 1044.4375 136.65625 1044.023438 137.394531 1043.59375 C 152.074219 1035.105469 166.667969 1026.476562 181.242188 1017.808594 C 184.441406 1015.90625 187.640625 1014.007812 190.84375 1012.109375 C 199.761719 1006.832031 208.660156 1001.519531 217.507812 996.125 C 223.835938 992.269531 230.195312 988.472656 236.574219 984.695312 C 243.394531 980.660156 250.195312 976.597656 256.964844 972.480469 C 257.542969 972.128906 257.542969 972.128906 258.132812 971.769531 C 260.832031 970.125 263.53125 968.480469 266.230469 966.835938 C 269.320312 964.953125 272.410156 963.070312 275.5 961.191406 C 275.882812 960.957031 276.265625 960.726562 276.660156 960.484375 C 283.675781 956.21875 290.738281 952.023438 297.808594 947.84375 C 302.984375 944.777344 308.144531 941.695312 313.21875 938.464844 C 318.023438 935.433594 322.929688 932.570312 327.820312 929.679688 C 334.515625 925.722656 341.179688 921.730469 347.789062 917.632812 C 354.234375 913.640625 360.726562 909.738281 367.25 905.878906 C 374.097656 901.828125 380.925781 897.753906 387.722656 893.621094 C 388.300781 893.269531 388.300781 893.269531 388.890625 892.910156 C 391.59375 891.265625 394.292969 889.621094 396.992188 887.976562 C 400.078125 886.09375 403.167969 884.210938 406.257812 882.332031 C 406.640625 882.097656 407.023438 881.863281 407.417969 881.625 C 413.96875 877.640625 420.554688 873.722656 427.152344 869.820312 C 432.863281 866.441406 438.566406 863.058594 444.171875 859.511719 C 448.464844 856.796875 452.804688 854.167969 457.148438 851.535156 C 457.550781 851.292969 457.953125 851.046875 458.371094 850.796875 C 460.863281 849.285156 463.355469 847.773438 465.847656 846.265625 C 469.4375 844.089844 473.023438 841.917969 476.609375 839.742188 C 477.195312 839.386719 477.195312 839.386719 477.792969 839.023438 C 483.449219 835.589844 489.09375 832.132812 494.722656 828.660156 C 503.117188 823.484375 511.542969 818.363281 519.976562 813.253906 C 523.527344 811.105469 527.070312 808.949219 530.617188 806.796875 C 531.796875 806.082031 532.980469 805.363281 534.160156 804.648438 C 537.675781 802.511719 541.191406 800.378906 544.699219 798.238281 C 553.851562 792.660156 563.035156 787.140625 572.257812 781.679688 C 579.472656 777.410156 586.660156 773.097656 593.816406 768.726562 C 597.507812 766.472656 601.207031 764.234375 604.929688 762.03125 C 605.972656 761.410156 605.972656 761.410156 607.039062 760.773438 C 608.324219 760.007812 609.613281 759.25 610.90625 758.5 C 619.5625 753.320312 626.246094 746.917969 628.855469 736.996094 C 629.097656 735.027344 629.09375 733.101562 629.054688 731.121094 C 629.050781 730.289062 629.050781 730.289062 629.046875 729.4375 C 629.039062 727.601562 629.011719 725.765625 628.988281 723.929688 C 628.976562 722.605469 628.96875 721.285156 628.960938 719.960938 C 628.941406 717.164062 628.917969 714.371094 628.890625 711.574219 C 628.851562 707.503906 628.835938 703.429688 628.824219 699.355469 C 628.820312 698.363281 628.820312 698.363281 628.820312 697.347656 C 628.816406 695.988281 628.8125 694.625 628.808594 693.265625 C 628.796875 689.664062 628.785156 686.058594 628.769531 682.457031 C 628.726562 672.617188 628.691406 662.777344 628.652344 652.9375 C 628.648438 651.5 628.644531 650.066406 628.636719 648.628906 C 628.542969 623.863281 628.453125 599.097656 628.371094 574.332031 C 628.371094 573.730469 628.367188 573.125 628.367188 572.503906 C 628.203125 523.5 628.105469 474.496094 628.015625 425.492188 C 628.007812 420.6875 628 415.878906 627.992188 411.074219 C 627.925781 374.832031 627.859375 338.589844 627.800781 302.347656 C 627.785156 292.046875 627.769531 281.75 627.75 271.449219 C 627.75 270.765625 627.75 270.765625 627.75 270.066406 C 627.742188 265.515625 627.734375 260.960938 627.726562 256.40625 C 627.710938 247.320312 627.695312 238.234375 627.683594 229.148438 C 627.636719 196.136719 627.554688 163.125 627.277344 130.113281 C 627.253906 127.089844 627.230469 124.0625 627.210938 121.035156 C 627.1875 117.515625 627.15625 113.996094 627.121094 110.476562 C 627.109375 109.203125 627.101562 107.925781 627.09375 106.652344 C 627.054688 100.101562 626.835938 93.613281 626.226562 87.089844 C 626.171875 86.507812 626.121094 85.921875 626.066406 85.320312 C 625.925781 83.933594 625.710938 82.550781 625.484375 81.175781 C 625.039062 80.953125 624.59375 80.730469 624.136719 80.5 Z M 686.144531 81.847656 C 685.601562 84.710938 685.386719 87.410156 685.386719 90.324219 C 685.386719 91.210938 685.382812 92.097656 685.382812 93.011719 C 685.382812 93.996094 685.386719 94.976562 685.386719 95.957031 C 685.386719 97.007812 685.386719 98.058594 685.382812 99.109375 C 685.382812 102.003906 685.382812 104.898438 685.386719 107.796875 C 685.386719 110.941406 685.382812 114.089844 685.382812 117.234375 C 685.378906 122.753906 685.378906 128.273438 685.382812 133.792969 C 685.386719 142 685.382812 150.207031 685.382812 158.417969 C 685.378906 173.082031 685.378906 187.746094 685.378906 202.410156 C 685.382812 215.257812 685.382812 228.101562 685.382812 240.949219 C 685.382812 241.800781 685.382812 242.652344 685.382812 243.53125 C 685.382812 246.988281 685.382812 250.449219 685.378906 253.90625 C 685.378906 278.058594 685.378906 302.207031 685.382812 326.359375 C 685.382812 326.816406 685.382812 327.269531 685.382812 327.738281 C 685.382812 335.136719 685.382812 342.53125 685.382812 349.925781 C 685.386719 379.203125 685.386719 408.476562 685.382812 437.75 C 685.382812 445.117188 685.382812 452.480469 685.382812 459.847656 C 685.382812 460.300781 685.382812 460.753906 685.382812 461.222656 C 685.378906 485.777344 685.378906 510.328125 685.382812 534.882812 C 685.382812 538.34375 685.382812 541.800781 685.382812 545.261719 C 685.382812 546.113281 685.382812 546.964844 685.382812 547.839844 C 685.382812 560.660156 685.382812 573.480469 685.378906 586.296875 C 685.378906 600.902344 685.378906 615.507812 685.382812 630.109375 C 685.382812 638.269531 685.382812 646.425781 685.382812 654.582031 C 685.378906 660.054688 685.382812 665.523438 685.382812 670.996094 C 685.386719 674.097656 685.386719 677.203125 685.382812 680.304688 C 685.378906 687.414062 685.394531 694.527344 685.457031 701.636719 C 685.46875 702.769531 685.476562 703.902344 685.484375 705.035156 C 685.511719 708.59375 685.554688 712.15625 685.617188 715.714844 C 685.636719 716.828125 685.648438 717.941406 685.660156 719.054688 C 685.777344 732.324219 688.625 744.289062 697.605469 754.519531 C 698.179688 755.191406 698.179688 755.191406 698.769531 755.878906 C 709.75 767.769531 727.644531 774.878906 741.558594 782.816406 C 753.226562 789.472656 764.847656 796.195312 776.394531 803.0625 C 781.5625 806.132812 786.753906 809.15625 791.96875 812.148438 C 797.949219 815.585938 803.898438 819.066406 809.828125 822.59375 C 816.445312 826.53125 823.09375 830.40625 829.769531 834.246094 C 835.300781 837.425781 840.808594 840.640625 846.308594 843.871094 C 846.722656 844.109375 847.132812 844.351562 847.558594 844.601562 C 848.386719 845.085938 849.210938 845.574219 850.039062 846.058594 C 850.441406 846.296875 850.847656 846.535156 851.265625 846.777344 C 851.667969 847.015625 852.070312 847.25 852.484375 847.492188 C 856.347656 849.761719 860.214844 852.019531 864.085938 854.273438 C 876.378906 861.4375 888.65625 868.628906 900.902344 875.875 C 909.285156 880.835938 917.691406 885.753906 926.097656 890.671875 C 927.167969 891.296875 927.167969 891.296875 928.261719 891.9375 C 938.019531 897.644531 947.796875 903.304688 957.589844 908.945312 C 959.773438 910.203125 961.957031 911.464844 964.136719 912.722656 C 974.011719 918.429688 983.90625 924.101562 993.8125 929.753906 C 997.359375 931.777344 1000.90625 933.804688 1004.453125 935.832031 C 1006.417969 936.953125 1008.382812 938.078125 1010.347656 939.199219 C 1011.136719 939.648438 1011.921875 940.097656 1012.707031 940.550781 C 1013.097656 940.769531 1013.488281 940.992188 1013.886719 941.222656 C 1036.300781 954.027344 1036.300781 954.027344 1037.476562 954.703125 C 1038.265625 955.152344 1039.050781 955.601562 1039.835938 956.050781 C 1041.800781 957.175781 1043.765625 958.296875 1045.730469 959.421875 C 1049.28125 961.449219 1052.832031 963.476562 1056.386719 965.503906 C 1065.140625 970.5 1073.886719 975.515625 1082.613281 980.558594 C 1090.296875 984.992188 1097.996094 989.390625 1105.699219 993.785156 C 1109.25 995.808594 1112.792969 997.835938 1116.339844 999.863281 C 1118.304688 1000.988281 1120.269531 1002.109375 1122.238281 1003.234375 C 1123.023438 1003.683594 1123.808594 1004.132812 1124.59375 1004.582031 C 1124.984375 1004.804688 1125.375 1005.027344 1125.773438 1005.253906 C 1139.535156 1013.117188 1153.296875 1020.980469 1167.058594 1028.84375 C 1167.449219 1029.066406 1167.835938 1029.289062 1168.238281 1029.519531 C 1169.023438 1029.96875 1169.8125 1030.417969 1170.597656 1030.867188 C 1172.5625 1031.988281 1174.527344 1033.113281 1176.492188 1034.234375 C 1180.449219 1036.496094 1184.40625 1038.757812 1188.363281 1041.023438 C 1197.984375 1046.535156 1207.625 1052.015625 1217.316406 1057.402344 C 1218.609375 1058.121094 1219.902344 1058.84375 1221.195312 1059.566406 C 1228.488281 1063.648438 1235.859375 1067.511719 1243.390625 1071.140625 C 1244.125 1071.496094 1244.863281 1071.847656 1245.617188 1072.214844 C 1248.835938 1073.960938 1248.835938 1073.960938 1252.320312 1074.679688 C 1252.320312 869.15625 1252.320312 663.632812 1252.320312 451.886719 C 1240.945312 458.089844 1229.582031 464.3125 1218.410156 470.882812 C 1212.742188 474.21875 1207.019531 477.429688 1201.234375 480.554688 C 1196.851562 482.929688 1192.5 485.355469 1188.164062 487.820312 C 1182.519531 491.023438 1176.863281 494.191406 1171.1875 497.339844 C 1163.191406 501.773438 1155.210938 506.234375 1147.238281 510.703125 C 1144.4375 512.273438 1141.636719 513.839844 1138.835938 515.410156 C 1137.433594 516.195312 1136.027344 516.984375 1134.621094 517.769531 C 1131.105469 519.742188 1127.589844 521.707031 1124.066406 523.667969 C 1116.941406 527.636719 1109.835938 531.636719 1102.773438 535.714844 C 1102.128906 536.085938 1101.484375 536.453125 1100.820312 536.832031 C 1089.851562 543.207031 1081.050781 550.261719 1077.214844 562.832031 C 1075.554688 569.273438 1075.457031 575.359375 1075.5 581.953125 C 1075.5 583.164062 1075.5 584.375 1075.5 585.585938 C 1075.496094 588.886719 1075.511719 592.191406 1075.523438 595.496094 C 1075.535156 599.066406 1075.539062 602.636719 1075.539062 606.207031 C 1075.546875 612.390625 1075.558594 618.574219 1075.578125 624.753906 C 1075.601562 633.703125 1075.613281 642.652344 1075.625 651.601562 C 1075.636719 666.140625 1075.660156 680.675781 1075.6875 695.210938 C 1075.6875 696.082031 1075.691406 696.949219 1075.691406 697.847656 C 1075.707031 704.898438 1075.71875 711.949219 1075.734375 719 C 1075.746094 725.164062 1075.757812 731.324219 1075.769531 737.488281 C 1075.773438 738.789062 1075.773438 738.789062 1075.777344 740.117188 C 1075.804688 754.597656 1075.824219 769.078125 1075.835938 783.5625 C 1075.847656 792.484375 1075.863281 801.410156 1075.886719 810.335938 C 1075.90625 816.453125 1075.914062 822.566406 1075.917969 828.683594 C 1075.921875 832.210938 1075.929688 835.738281 1075.941406 839.261719 C 1075.957031 842.496094 1075.960938 845.730469 1075.957031 848.960938 C 1075.957031 850.125 1075.960938 851.289062 1075.96875 852.453125 C 1076.039062 862.914062 1075.582031 874.339844 1068.414062 882.6875 C 1061.039062 889.625 1052.585938 889.6875 1043.027344 889.414062 C 1036.515625 889.058594 1030.871094 886.53125 1026.355469 881.824219 C 1021.371094 875.472656 1021.042969 867.402344 1020.460938 859.667969 C 1020.425781 859.210938 1020.386719 858.75 1020.351562 858.28125 C 1019.789062 850.570312 1019.65625 842.832031 1019.453125 835.109375 C 1019.4375 834.546875 1019.421875 833.988281 1019.40625 833.410156 C 1019.105469 821.878906 1018.917969 810.34375 1018.789062 798.808594 C 1018.769531 797.070312 1018.75 795.335938 1018.726562 793.597656 C 1018.449219 769.667969 1018.3125 745.742188 1018.175781 721.8125 C 1018.144531 716.585938 1018.113281 711.355469 1018.082031 706.128906 C 1018.058594 701.890625 1018.03125 697.652344 1018.007812 693.414062 C 1017.996094 691.8125 1017.988281 690.210938 1017.980469 688.609375 C 1017.902344 676.074219 1017.835938 663.535156 1017.773438 650.996094 C 1017.726562 641.855469 1017.675781 632.714844 1017.613281 623.574219 C 1017.578125 618 1017.546875 612.421875 1017.527344 606.84375 C 1017.511719 603.054688 1017.488281 599.261719 1017.460938 595.472656 C 1017.441406 593.296875 1017.429688 591.121094 1017.425781 588.941406 C 1017.386719 574.261719 1016.34375 561.613281 1006.980469 549.617188 C 1006.644531 549.164062 1006.304688 548.707031 1005.960938 548.238281 C 999.121094 539.625 988.273438 534.855469 978.78125 529.851562 C 975.347656 528.035156 971.933594 526.191406 968.519531 524.34375 C 967.847656 523.980469 967.179688 523.621094 966.492188 523.246094 C 961.222656 520.390625 956.003906 517.449219 950.796875 514.484375 C 946.1875 511.871094 941.546875 509.328125 936.882812 506.816406 C 930.914062 503.605469 925.003906 500.3125 919.117188 496.960938 C 914.507812 494.34375 909.867188 491.804688 905.203125 489.292969 C 899.285156 486.105469 893.414062 482.847656 887.574219 479.527344 C 882.640625 476.722656 877.6875 473.96875 872.722656 471.222656 C 864.054688 466.417969 855.441406 461.519531 846.847656 456.582031 C 845.332031 455.710938 843.816406 454.839844 842.300781 453.96875 C 833.417969 448.875 824.574219 443.71875 815.773438 438.488281 C 810.59375 435.410156 805.402344 432.355469 800.199219 429.3125 C 791.636719 424.308594 783.113281 419.246094 774.625 414.117188 C 772.652344 412.929688 770.675781 411.757812 768.695312 410.585938 C 766.992188 409.578125 765.292969 408.5625 763.59375 407.546875 C 762.78125 407.066406 761.96875 406.585938 761.15625 406.109375 C 747.582031 398.144531 747.582031 398.144531 744.40625 391.054688 C 744.101562 390.398438 743.792969 389.742188 743.476562 389.0625 C 740.835938 382.085938 741.933594 374.730469 744.832031 367.980469 C 748.699219 360.578125 754.234375 355.699219 762.140625 352.929688 C 772.964844 349.722656 782.445312 351.996094 792.21875 357.15625 C 797.25 359.886719 802.175781 362.808594 807.105469 365.71875 C 811.667969 368.40625 816.265625 371.035156 820.867188 373.65625 C 822.460938 374.566406 824.054688 375.476562 825.652344 376.386719 C 826.242188 376.722656 826.242188 376.722656 826.847656 377.066406 C 837.261719 383.015625 847.636719 389.03125 857.992188 395.085938 C 862.960938 397.988281 867.945312 400.863281 872.933594 403.734375 C 878.953125 407.199219 884.949219 410.703125 890.925781 414.246094 C 897.460938 418.121094 904.023438 421.941406 910.585938 425.765625 C 920.339844 431.445312 930.082031 437.136719 939.816406 442.847656 C 947.386719 447.285156 954.964844 451.710938 962.546875 456.128906 C 965.902344 458.085938 969.253906 460.039062 972.605469 461.996094 C 973.953125 462.78125 975.300781 463.566406 976.648438 464.355469 C 1000.914062 478.507812 1000.914062 478.507812 1002.9375 479.691406 C 1004.277344 480.472656 1005.617188 481.253906 1006.960938 482.035156 C 1010.445312 484.0625 1013.925781 486.105469 1017.398438 488.15625 C 1018.113281 488.582031 1018.832031 489.003906 1019.570312 489.4375 C 1020.929688 490.238281 1022.285156 491.042969 1023.640625 491.851562 C 1032.90625 497.300781 1041.710938 501.335938 1052.601562 499.023438 C 1060.414062 496.894531 1067.121094 492.109375 1073.921875 487.863281 C 1078.710938 484.875 1083.546875 481.96875 1088.410156 479.097656 C 1089.164062 478.652344 1089.917969 478.207031 1090.695312 477.746094 C 1092.285156 476.808594 1093.871094 475.871094 1095.460938 474.9375 C 1108.042969 467.511719 1120.597656 460.042969 1133.0625 452.421875 C 1136.765625 450.15625 1140.476562 447.902344 1144.183594 445.648438 C 1144.578125 445.410156 1144.96875 445.171875 1145.375 444.925781 C 1152.003906 440.902344 1158.648438 436.910156 1165.296875 432.925781 C 1174.558594 427.375 1183.785156 421.773438 1193.007812 416.160156 C 1194.367188 415.335938 1195.730469 414.507812 1197.089844 413.679688 C 1200.246094 411.757812 1203.402344 409.835938 1206.558594 407.914062 C 1210.117188 405.746094 1213.671875 403.582031 1217.230469 401.417969 C 1218.542969 400.617188 1219.855469 399.820312 1221.167969 399.023438 C 1222.117188 398.445312 1223.066406 397.867188 1224.011719 397.289062 C 1222.480469 395.617188 1220.90625 394.535156 1218.941406 393.410156 C 1218.320312 393.046875 1217.699219 392.6875 1217.058594 392.316406 C 1216.378906 391.929688 1215.699219 391.539062 1215 391.140625 C 1213.519531 390.285156 1212.042969 389.429688 1210.566406 388.578125 C 1210.179688 388.355469 1209.792969 388.132812 1209.394531 387.902344 C 1205.410156 385.601562 1201.441406 383.273438 1197.472656 380.945312 C 1195.824219 379.976562 1194.175781 379.007812 1192.523438 378.042969 C 1191.273438 377.308594 1190.019531 376.574219 1188.765625 375.835938 C 1185.082031 373.675781 1181.398438 371.515625 1177.714844 369.359375 C 1175.679688 368.164062 1173.644531 366.972656 1171.609375 365.777344 C 1170.792969 365.300781 1169.980469 364.824219 1169.164062 364.347656 C 1128.851562 340.714844 1088.535156 317.082031 988.359375 258.355469 C 987.753906 258.003906 987.753906 258.003906 987.136719 257.640625 C 986.324219 257.164062 985.507812 256.6875 984.695312 256.207031 C 982.660156 255.015625 980.625 253.824219 978.59375 252.632812 C 974.898438 250.464844 971.199219 248.296875 967.503906 246.128906 C 959.546875 241.464844 951.589844 236.800781 943.621094 232.15625 C 935.234375 227.265625 926.859375 222.355469 918.484375 217.441406 C 914.800781 215.28125 911.117188 213.121094 907.429688 210.964844 C 905.394531 209.769531 903.363281 208.578125 901.328125 207.382812 C 900.511719 206.90625 899.699219 206.429688 898.882812 205.953125 C 858.570312 182.320312 818.253906 158.6875 736.402344 110.703125 C 735.585938 110.226562 734.773438 109.75 733.957031 109.273438 C 731.925781 108.082031 729.894531 106.890625 727.863281 105.699219 C 724.144531 103.519531 720.421875 101.335938 716.699219 99.160156 C 715.007812 98.167969 713.3125 97.175781 711.617188 96.1875 C 710.789062 95.703125 709.964844 95.21875 709.136719 94.734375 C 703.195312 91.257812 697.277344 87.742188 691.410156 84.140625 C 690.90625 83.835938 690.40625 83.53125 689.886719 83.214844 C 689.453125 82.949219 689.019531 82.683594 688.574219 82.410156 C 687.496094 81.746094 687.496094 81.746094 686.144531 81.847656 Z M 615.632812 825.824219 C 612.816406 827.507812 609.988281 829.171875 607.15625 830.824219 C 606.554688 831.175781 606.554688 831.175781 605.941406 831.535156 C 605.125 832.011719 604.3125 832.484375 603.5 832.960938 C 596.28125 837.167969 589.113281 841.453125 581.980469 845.800781 C 575.667969 849.652344 569.328125 853.453125 562.96875 857.222656 C 562.519531 857.488281 562.074219 857.753906 561.613281 858.027344 C 559.332031 859.378906 557.054688 860.726562 554.777344 862.078125 C 550.160156 864.808594 545.546875 867.546875 540.9375 870.28125 C 540.484375 870.550781 540.03125 870.820312 539.566406 871.09375 C 533.035156 874.972656 526.511719 878.871094 520.003906 882.785156 C 514.789062 885.921875 509.558594 889.023438 504.324219 892.125 C 496.285156 896.890625 488.273438 901.699219 480.292969 906.5625 C 474.277344 910.226562 468.222656 913.832031 462.160156 917.421875 C 454.09375 922.199219 446.066406 927.03125 438.070312 931.921875 C 434.734375 933.957031 431.398438 935.984375 428.058594 938.011719 C 426.859375 938.738281 425.660156 939.464844 424.460938 940.195312 C 422.847656 941.171875 421.238281 942.148438 419.625 943.128906 C 417.242188 944.574219 414.863281 946.019531 412.480469 947.464844 C 412.09375 947.703125 411.703125 947.9375 411.304688 948.179688 C 409.34375 949.371094 407.386719 950.558594 405.429688 951.746094 C 401.847656 953.921875 398.265625 956.097656 394.679688 958.269531 C 381.453125 966.28125 368.292969 974.394531 355.1875 982.601562 C 351.84375 984.695312 348.492188 986.78125 345.132812 988.851562 C 344.175781 989.441406 344.175781 989.441406 343.199219 990.042969 C 342 990.777344 340.804688 991.515625 339.605469 992.246094 C 336.398438 994.222656 333.304688 996.285156 330.261719 998.515625 C 332.914062 1001.367188 335.777344 1003.496094 339.027344 1005.632812 C 339.558594 1005.984375 340.09375 1006.335938 340.640625 1006.699219 C 350.605469 1013.1875 361.070312 1018.703125 371.648438 1024.109375 C 379.328125 1028.035156 386.855469 1032.1875 394.339844 1036.480469 C 398.015625 1038.574219 401.71875 1040.613281 405.417969 1042.664062 C 411.710938 1046.152344 417.988281 1049.667969 424.25 1053.21875 C 427.546875 1055.085938 430.847656 1056.945312 434.160156 1058.792969 C 441.921875 1063.117188 449.636719 1067.507812 457.296875 1072.003906 C 461.207031 1074.292969 465.140625 1076.539062 469.113281 1078.722656 C 474.425781 1081.644531 479.664062 1084.695312 484.898438 1087.761719 C 489.738281 1090.597656 494.601562 1093.386719 499.476562 1096.160156 C 506.921875 1100.394531 514.3125 1104.710938 521.671875 1109.09375 C 526.917969 1112.214844 532.191406 1115.28125 537.480469 1118.320312 C 543.023438 1121.503906 548.535156 1124.726562 554.003906 1128.03125 C 559.914062 1131.597656 565.851562 1135.117188 571.789062 1138.636719 C 576.558594 1141.460938 581.324219 1144.292969 586.074219 1147.148438 C 589.425781 1149.164062 592.785156 1151.167969 596.152344 1153.160156 C 596.570312 1153.410156 596.992188 1153.65625 597.421875 1153.914062 C 598.285156 1154.421875 599.148438 1154.933594 600.011719 1155.445312 C 607.125 1159.65625 614.222656 1163.898438 621.28125 1168.203125 C 623.957031 1169.832031 626.640625 1171.457031 629.320312 1173.082031 C 630.8125 1173.984375 632.296875 1174.890625 633.785156 1175.800781 C 649.507812 1185.625 649.507812 1185.625 667.527344 1185.808594 C 675.957031 1183.234375 683.160156 1178.210938 690.511719 1173.5 C 699.640625 1167.667969 708.929688 1162.101562 718.253906 1156.585938 C 724.652344 1152.800781 731.023438 1148.984375 737.371094 1145.113281 C 744.535156 1140.746094 751.738281 1136.445312 758.960938 1132.171875 C 765.382812 1128.371094 771.777344 1124.523438 778.148438 1120.636719 C 785.839844 1115.949219 793.589844 1111.367188 801.390625 1106.859375 C 803.492188 1105.644531 805.589844 1104.425781 807.6875 1103.207031 C 818.101562 1097.160156 828.605469 1091.285156 839.148438 1085.464844 C 858.179688 1074.945312 877.042969 1064.164062 895.765625 1053.109375 C 896.199219 1052.851562 896.636719 1052.597656 897.082031 1052.332031 C 909.398438 1045.0625 921.660156 1037.710938 933.867188 1030.269531 C 937.5 1028.058594 941.132812 1025.847656 944.769531 1023.640625 C 945.574219 1023.152344 946.378906 1022.664062 947.183594 1022.175781 C 951.589844 1019.496094 956.003906 1016.828125 960.4375 1014.191406 C 965.902344 1010.933594 971.3125 1007.601562 976.691406 1004.203125 C 977.328125 1003.800781 977.96875 1003.398438 978.625 1002.984375 C 979.21875 1002.605469 979.808594 1002.230469 980.421875 1001.839844 C 980.945312 1001.507812 981.472656 1001.171875 982.011719 1000.828125 C 983.296875 999.925781 984.34375 998.988281 985.410156 997.839844 C 980.386719 992.316406 975.214844 988.398438 968.6875 984.78125 C 967.816406 984.289062 966.945312 983.792969 966.078125 983.296875 C 964.34375 982.304688 962.605469 981.320312 960.863281 980.335938 C 957.558594 978.46875 954.296875 976.53125 951.035156 974.585938 C 942.90625 969.769531 934.75 965 926.59375 960.222656 C 922.089844 957.585938 917.589844 954.945312 913.085938 952.304688 C 911.867188 951.589844 910.652344 950.878906 909.433594 950.164062 C 909.03125 949.929688 908.628906 949.691406 908.214844 949.449219 C 905.722656 947.988281 903.234375 946.53125 900.742188 945.070312 C 893.011719 940.542969 885.277344 936.011719 877.566406 931.449219 C 863.875 923.347656 850.136719 915.328125 836.390625 907.316406 C 834.410156 906.160156 832.429688 905.003906 830.445312 903.847656 C 822.738281 899.339844 815.011719 894.863281 807.273438 890.40625 C 801.71875 887.203125 796.179688 883.976562 790.644531 880.742188 C 785.703125 877.855469 780.75 874.992188 775.789062 872.136719 C 769.496094 868.511719 763.214844 864.863281 756.945312 861.195312 C 752.003906 858.308594 747.046875 855.445312 742.089844 852.589844 C 734.425781 848.175781 726.785156 843.726562 719.152344 839.265625 C 716.464844 837.695312 713.773438 836.128906 711.085938 834.558594 C 709.738281 833.773438 708.394531 832.988281 707.046875 832.203125 C 703.644531 830.21875 700.242188 828.234375 696.835938 826.253906 C 696.152344 825.859375 695.472656 825.460938 694.769531 825.054688 C 693.410156 824.261719 692.050781 823.472656 690.6875 822.683594 C 687.476562 820.816406 684.289062 818.921875 681.140625 816.953125 C 655.855469 801.175781 638.957031 811.859375 615.632812 825.824219 Z M 1031.125 1041.480469 C 1029.136719 1042.363281 1027.136719 1043.207031 1025.132812 1044.050781 C 1011.117188 1049.992188 998.152344 1057.378906 985.148438 1065.253906 C 980.882812 1067.835938 976.585938 1070.355469 972.28125 1072.863281 C 965.035156 1077.089844 957.832031 1081.382812 950.671875 1085.75 C 944.308594 1089.636719 937.90625 1093.460938 931.488281 1097.257812 C 924.722656 1101.261719 917.980469 1105.296875 911.269531 1109.390625 C 904.101562 1113.761719 896.894531 1118.0625 889.671875 1122.335938 C 882.59375 1126.527344 875.554688 1130.773438 868.53125 1135.054688 C 862.484375 1138.738281 856.402344 1142.351562 850.3125 1145.957031 C 843.871094 1149.765625 837.46875 1153.617188 831.125 1157.585938 C 825.691406 1160.96875 820.183594 1164.222656 814.671875 1167.484375 C 805.964844 1172.632812 805.964844 1172.632812 797.363281 1177.960938 C 793.070312 1180.671875 788.726562 1183.300781 784.382812 1185.933594 C 783.980469 1186.179688 783.578125 1186.421875 783.164062 1186.675781 C 781.089844 1187.929688 779.019531 1189.183594 776.945312 1190.441406 C 772.894531 1192.894531 768.84375 1195.355469 764.796875 1197.8125 C 764.207031 1198.171875 764.207031 1198.171875 763.601562 1198.539062 C 761.660156 1199.71875 759.71875 1200.898438 757.773438 1202.078125 C 756.355469 1202.9375 754.9375 1203.800781 753.519531 1204.660156 C 743.167969 1210.945312 732.835938 1217.257812 722.542969 1223.636719 C 722.03125 1223.953125 721.523438 1224.269531 720.996094 1224.59375 C 708.394531 1232.410156 697.597656 1240.097656 693.949219 1255.214844 C 693.003906 1260.363281 692.785156 1265.4375 692.792969 1270.664062 C 692.789062 1271.375 692.789062 1272.082031 692.785156 1272.8125 C 692.78125 1275.171875 692.777344 1277.53125 692.777344 1279.894531 C 692.773438 1281.589844 692.769531 1283.289062 692.765625 1284.988281 C 692.757812 1289.59375 692.753906 1294.199219 692.75 1298.804688 C 692.75 1301.6875 692.746094 1304.570312 692.742188 1307.453125 C 692.734375 1315.453125 692.726562 1323.453125 692.726562 1331.453125 C 692.726562 1331.964844 692.726562 1332.476562 692.726562 1333 C 692.726562 1333.515625 692.726562 1334.027344 692.726562 1334.554688 C 692.726562 1335.59375 692.722656 1336.632812 692.722656 1337.667969 C 692.722656 1338.183594 692.722656 1338.699219 692.722656 1339.230469 C 692.722656 1347.554688 692.710938 1355.882812 692.695312 1364.207031 C 692.675781 1372.78125 692.667969 1381.351562 692.667969 1389.925781 C 692.667969 1394.726562 692.664062 1399.53125 692.652344 1404.335938 C 692.640625 1408.859375 692.640625 1413.386719 692.644531 1417.910156 C 692.644531 1419.5625 692.644531 1421.210938 692.636719 1422.863281 C 692.597656 1432.714844 692.8125 1442.460938 694.90625 1452.128906 C 695.351562 1452.574219 695.796875 1453.019531 696.257812 1453.476562 C 696.851562 1453.117188 696.851562 1453.117188 697.460938 1452.753906 C 704.472656 1448.535156 711.488281 1444.320312 718.53125 1440.152344 C 718.984375 1439.882812 719.4375 1439.613281 719.90625 1439.339844 C 720.363281 1439.070312 720.816406 1438.796875 721.285156 1438.519531 C 728.699219 1434.132812 736.085938 1429.722656 743.386719 1425.15625 C 748.652344 1421.878906 753.984375 1418.722656 759.320312 1415.5625 C 766.351562 1411.40625 773.363281 1407.21875 780.339844 1402.96875 C 780.734375 1402.730469 781.125 1402.488281 781.53125 1402.242188 C 781.917969 1402.007812 782.308594 1401.769531 782.707031 1401.527344 C 787.664062 1398.507812 792.632812 1395.511719 797.609375 1392.53125 C 801.523438 1390.191406 805.417969 1387.824219 809.3125 1385.453125 C 817.4375 1380.507812 825.59375 1375.617188 833.78125 1370.769531 C 840.089844 1367.039062 846.371094 1363.265625 852.628906 1359.453125 C 859.339844 1355.359375 866.085938 1351.324219 872.847656 1347.320312 C 880.03125 1343.070312 887.1875 1338.78125 894.3125 1334.4375 C 900.824219 1330.472656 907.355469 1326.542969 913.894531 1322.625 C 920.359375 1318.753906 926.800781 1314.855469 933.234375 1310.933594 C 940.148438 1306.726562 947.109375 1302.589844 954.078125 1298.46875 C 959.5 1295.257812 964.902344 1292.019531 970.246094 1288.679688 C 976.507812 1284.765625 982.855469 1280.996094 989.210938 1277.234375 C 995.609375 1273.453125 1001.980469 1269.632812 1008.328125 1265.761719 C 1015.492188 1261.394531 1022.699219 1257.09375 1029.921875 1252.816406 C 1036.230469 1249.082031 1042.511719 1245.3125 1048.769531 1241.5 C 1055.480469 1237.40625 1062.222656 1233.371094 1068.988281 1229.367188 C 1077.488281 1224.335938 1085.945312 1219.234375 1094.378906 1214.097656 C 1098.570312 1211.546875 1102.777344 1209.023438 1106.984375 1206.503906 C 1110.898438 1204.160156 1114.792969 1201.796875 1118.6875 1199.425781 C 1126.429688 1194.710938 1134.195312 1190.046875 1141.992188 1185.429688 C 1150.050781 1180.65625 1158.070312 1175.828125 1166.0625 1170.941406 C 1169.914062 1168.589844 1173.773438 1166.246094 1177.632812 1163.902344 C 1178.035156 1163.65625 1178.441406 1163.410156 1178.855469 1163.15625 C 1183.789062 1160.164062 1188.730469 1157.175781 1193.683594 1154.214844 C 1195.929688 1152.867188 1198.175781 1151.519531 1200.421875 1150.167969 C 1200.796875 1149.945312 1201.171875 1149.71875 1201.558594 1149.488281 C 1204.109375 1147.953125 1206.660156 1146.417969 1209.210938 1144.875 C 1210.054688 1144.367188 1210.902344 1143.855469 1211.746094 1143.347656 C 1212.9375 1142.632812 1214.125 1141.914062 1215.3125 1141.195312 C 1216 1140.78125 1216.6875 1140.367188 1217.394531 1139.941406 C 1219.257812 1138.734375 1220.960938 1137.429688 1222.664062 1136.015625 C 1222.464844 1133.152344 1221.941406 1131.546875 1219.847656 1129.566406 C 1216.988281 1127.316406 1213.738281 1125.621094 1210.574219 1123.839844 C 1209.785156 1123.390625 1208.996094 1122.941406 1208.207031 1122.492188 C 1202.753906 1119.386719 1197.253906 1116.363281 1191.730469 1113.375 C 1187.398438 1111.027344 1183.097656 1108.625 1178.8125 1106.1875 C 1172.898438 1102.828125 1166.953125 1099.523438 1160.992188 1096.246094 C 1154.472656 1092.660156 1147.980469 1089.039062 1141.507812 1085.367188 C 1133.542969 1080.851562 1125.527344 1076.421875 1117.519531 1071.984375 C 1108.824219 1067.164062 1100.132812 1062.347656 1091.484375 1057.449219 C 1090.550781 1056.921875 1090.550781 1056.921875 1089.597656 1056.382812 C 1086.960938 1054.890625 1084.320312 1053.394531 1081.683594 1051.898438 C 1071.320312 1046.011719 1071.320312 1046.011719 1060.773438 1040.472656 C 1060.152344 1040.15625 1060.152344 1040.15625 1059.515625 1039.835938 C 1049.039062 1034.683594 1041.199219 1036.980469 1031.125 1041.480469 Z M 248.371094 1046.582031 C 247.511719 1047.0625 246.648438 1047.542969 245.789062 1048.023438 C 244.023438 1049.007812 242.261719 1050 240.496094 1050.988281 C 236.617188 1053.171875 232.71875 1055.332031 228.824219 1057.492188 C 227.324219 1058.324219 225.820312 1059.160156 224.320312 1059.996094 C 219.921875 1062.4375 215.515625 1064.867188 211.109375 1067.296875 C 197.261719 1074.925781 183.480469 1082.664062 169.726562 1090.453125 C 167.84375 1091.519531 165.957031 1092.582031 164.074219 1093.644531 C 155.058594 1098.730469 146.066406 1103.859375 137.082031 1109 C 133.882812 1110.828125 130.683594 1112.65625 127.480469 1114.480469 C 125.519531 1115.601562 123.554688 1116.722656 121.597656 1117.847656 C 118.019531 1119.898438 114.441406 1121.941406 110.835938 1123.949219 C 109.210938 1124.855469 107.589844 1125.769531 105.96875 1126.683594 C 104.835938 1127.320312 103.699219 1127.945312 102.5625 1128.570312 C 98.191406 1131.042969 95.808594 1132.816406 93.726562 1137.40625 C 93.660156 1139.421875 94.554688 1140.453125 95.703125 1142.082031 C 97.289062 1143.292969 97.289062 1143.292969 99.167969 1144.289062 C 99.867188 1144.6875 100.566406 1145.082031 101.289062 1145.492188 C 102.046875 1145.910156 102.804688 1146.328125 103.582031 1146.757812 C 104.378906 1147.203125 105.171875 1147.652344 105.964844 1148.101562 C 107.597656 1149.023438 109.226562 1149.941406 110.863281 1150.855469 C 114.328125 1152.804688 117.761719 1154.8125 121.191406 1156.824219 C 122.527344 1157.605469 123.863281 1158.386719 125.199219 1159.164062 C 131.867188 1163.066406 138.53125 1166.972656 145.195312 1170.882812 C 148.09375 1172.582031 150.996094 1174.28125 153.898438 1175.980469 C 155.535156 1176.941406 157.171875 1177.898438 158.808594 1178.855469 C 159.214844 1179.09375 159.617188 1179.332031 160.035156 1179.574219 C 165.945312 1183.035156 171.835938 1186.523438 177.722656 1190.019531 C 183.636719 1193.535156 189.578125 1197 195.542969 1200.425781 C 201.285156 1203.71875 206.980469 1207.074219 212.648438 1210.492188 C 219.003906 1214.328125 225.40625 1218.074219 231.847656 1221.769531 C 237.398438 1224.960938 242.929688 1228.1875 248.453125 1231.429688 C 249.28125 1231.917969 250.109375 1232.402344 250.941406 1232.890625 C 252.164062 1233.609375 253.386719 1234.328125 254.613281 1235.046875 C 260.519531 1238.511719 266.4375 1241.957031 272.351562 1245.40625 C 275.027344 1246.964844 277.703125 1248.527344 280.378906 1250.085938 C 281.730469 1250.875 283.082031 1251.664062 284.433594 1252.453125 C 287.789062 1254.410156 291.140625 1256.367188 294.492188 1258.324219 C 301.417969 1262.371094 308.355469 1266.398438 315.308594 1270.398438 C 322.097656 1274.304688 328.847656 1278.28125 335.578125 1282.285156 C 342.238281 1286.242188 348.945312 1290.113281 355.660156 1293.976562 C 369.457031 1301.917969 383.167969 1310.007812 396.898438 1318.0625 C 399.808594 1319.769531 402.71875 1321.476562 405.628906 1323.179688 C 406.035156 1323.421875 406.445312 1323.660156 406.863281 1323.90625 C 412.984375 1327.492188 419.105469 1331.070312 425.234375 1334.644531 C 430.960938 1337.980469 436.679688 1341.332031 442.394531 1344.6875 C 447.925781 1347.929688 453.460938 1351.167969 459 1354.398438 C 465.378906 1358.113281 471.75 1361.84375 478.117188 1365.582031 C 483.648438 1368.824219 489.183594 1372.0625 494.722656 1375.292969 C 501.101562 1379.007812 507.472656 1382.738281 513.84375 1386.476562 C 519.371094 1389.71875 524.90625 1392.957031 530.449219 1396.1875 C 536.828125 1399.902344 543.195312 1403.632812 549.566406 1407.371094 C 555.097656 1410.613281 560.628906 1413.851562 566.171875 1417.082031 C 572.550781 1420.796875 578.917969 1424.527344 585.289062 1428.265625 C 591.457031 1431.882812 597.632812 1435.492188 603.8125 1439.09375 C 612.394531 1444.097656 620.960938 1449.125 629.527344 1454.152344 C 635.550781 1448.128906 633.285156 1431.746094 633.339844 1423.96875 C 633.355469 1421.984375 633.378906 1420 633.402344 1418.015625 C 633.484375 1410.515625 633.53125 1403.011719 633.574219 1395.511719 C 633.574219 1394.863281 633.578125 1394.21875 633.582031 1393.550781 C 633.679688 1375.21875 633.726562 1356.890625 633.730469 1338.5625 C 633.734375 1337.023438 633.734375 1335.488281 633.734375 1333.953125 C 633.734375 1333.191406 633.734375 1332.425781 633.734375 1331.640625 C 633.738281 1325.351562 633.753906 1319.0625 633.769531 1312.773438 C 633.78125 1306.617188 633.789062 1300.460938 633.789062 1294.304688 C 633.789062 1290.664062 633.792969 1287.027344 633.808594 1283.386719 C 633.816406 1280.003906 633.820312 1276.617188 633.8125 1273.230469 C 633.8125 1272 633.816406 1270.765625 633.824219 1269.53125 C 633.875 1258.949219 632.730469 1248.6875 625.074219 1240.601562 C 623.140625 1238.847656 621.050781 1237.414062 618.871094 1235.984375 C 618.425781 1235.6875 617.980469 1235.394531 617.523438 1235.09375 C 612.820312 1232.011719 608.003906 1229.136719 603.15625 1226.289062 C 602.214844 1225.734375 601.277344 1225.179688 600.335938 1224.625 C 597.488281 1222.941406 594.636719 1221.269531 591.78125 1219.59375 C 590.921875 1219.085938 590.0625 1218.582031 589.203125 1218.074219 C 584.757812 1215.464844 580.3125 1212.859375 575.863281 1210.257812 C 572.988281 1208.574219 570.113281 1206.890625 567.238281 1205.203125 C 557.660156 1199.585938 548.070312 1193.976562 538.476562 1188.382812 C 536.492188 1187.226562 534.511719 1186.070312 532.53125 1184.914062 C 524.820312 1180.40625 517.09375 1175.925781 509.355469 1171.46875 C 504.496094 1168.671875 499.648438 1165.847656 494.808594 1163.015625 C 482.652344 1155.910156 470.40625 1148.953125 458.140625 1142.035156 C 452.617188 1138.917969 447.113281 1135.773438 441.609375 1132.625 C 435.671875 1129.226562 429.722656 1125.847656 423.761719 1122.488281 C 418.273438 1119.390625 412.800781 1116.257812 407.328125 1113.125 C 401.710938 1109.90625 396.074219 1106.726562 390.417969 1103.578125 C 384.890625 1100.496094 379.40625 1097.347656 373.949219 1094.140625 C 368.222656 1090.777344 362.441406 1087.539062 356.597656 1084.378906 C 352.433594 1082.128906 348.3125 1079.816406 344.207031 1077.460938 C 336.933594 1073.277344 329.617188 1069.179688 322.292969 1065.089844 C 320.203125 1063.921875 318.113281 1062.75 316.023438 1061.578125 C 308.757812 1057.496094 301.476562 1053.433594 294.183594 1049.398438 C 293.339844 1048.933594 292.496094 1048.464844 291.652344 1047.996094 C 274.605469 1038.542969 265.78125 1036.726562 248.371094 1046.582031 Z M 248.371094 1046.582031 " fill-opacity="1" fill-rule="nonzero"/></g></svg>